<svg xmlns="http://www.w3.org/2000/svg" xmlns:xlink="http://www.w3.org/1999/xlink" width="500" zoomAndPan="magnify" viewBox="0 0 375 374.999991" height="500" preserveAspectRatio="xMidYMid meet" version="1.0"><defs><g/><clipPath id="a84ace12dc"><path d="M 126.496094 80.566406 L 128 80.566406 L 128 294.316406 L 126.496094 294.316406 Z M 126.496094 80.566406 " clip-rule="nonzero"/></clipPath><clipPath id="286c846685"><path d="M 127 85 L 187 85 L 187 294.316406 L 127 294.316406 Z M 127 85 " clip-rule="nonzero"/></clipPath><clipPath id="c1aa40d011"><path d="M 188 85 L 248 85 L 248 294.316406 L 188 294.316406 Z M 188 85 " clip-rule="nonzero"/></clipPath><clipPath id="e0c8bc1800"><path d="M 249 85 L 308.503906 85 L 308.503906 294.316406 L 249 294.316406 Z M 249 85 " clip-rule="nonzero"/></clipPath><clipPath id="9a0bfe9e18"><path d="M 66.125 85 L 126.125 85 L 126.125 294.316406 L 66.125 294.316406 Z M 66.125 85 " clip-rule="nonzero"/></clipPath></defs><rect x="-37.5" width="450" fill="#ffffff" y="-37.499999" height="449.999989" fill-opacity="1"/><rect x="-37.5" width="450" fill="#ffffff" y="-37.499999" height="449.999989" fill-opacity="1"/><g clip-path="url(#a84ace12dc)"><path fill="#6cc5c1" d="M 127.449219 90.269531 C 127.613281 88.953125 126.679688 87.746094 125.363281 87.578125 L 71.226562 80.71875 C 69.910156 80.550781 68.707031 81.480469 68.542969 82.804688 L 43.007812 284.613281 C 42.839844 285.933594 43.773438 287.136719 45.089844 287.304688 L 99.226562 294.167969 C 100.542969 294.335938 101.75 293.398438 101.917969 292.085938 L 127.449219 90.269531 " fill-opacity="1" fill-rule="nonzero"/></g><g clip-path="url(#286c846685)"><path fill="#f6bf37" d="M 186.828125 88.355469 C 186.828125 87.023438 185.75 85.949219 184.425781 85.949219 L 129.859375 85.949219 C 128.527344 85.949219 127.453125 87.023438 127.453125 88.355469 L 127.453125 291.78125 C 127.453125 293.109375 128.527344 294.1875 129.859375 294.1875 L 184.425781 294.1875 C 185.75 294.1875 186.828125 293.109375 186.828125 291.78125 L 186.828125 88.355469 " fill-opacity="1" fill-rule="nonzero"/></g><path fill="#ffffff" d="M 157.140625 275.28125 C 147.066406 275.28125 138.898438 267.105469 138.898438 257.019531 C 138.898438 246.933594 147.066406 238.761719 157.140625 238.761719 C 167.210938 238.761719 175.378906 246.933594 175.378906 257.019531 C 175.378906 267.105469 167.210938 275.28125 157.140625 275.28125 Z M 157.140625 236.425781 C 145.78125 236.425781 136.574219 245.648438 136.574219 257.019531 C 136.574219 268.394531 145.78125 277.613281 157.140625 277.613281 C 168.5 277.613281 177.707031 268.394531 177.707031 257.019531 C 177.707031 245.648438 168.5 236.425781 157.140625 236.425781 " fill-opacity="1" fill-rule="nonzero"/><path fill="#ffffff" d="M 181.589844 102.671875 L 132.691406 102.671875 L 132.691406 228.558594 L 181.589844 228.558594 L 181.589844 102.671875 " fill-opacity="1" fill-rule="nonzero"/><path fill="#e9e9e9" d="M 179.164062 108.5 L 135.117188 108.5 L 135.117188 107.140625 L 179.164062 107.140625 L 179.164062 108.5 " fill-opacity="1" fill-rule="nonzero"/><path fill="#e9e9e9" d="M 179.164062 111.800781 L 135.117188 111.800781 L 135.117188 110.441406 L 179.164062 110.441406 L 179.164062 111.800781 " fill-opacity="1" fill-rule="nonzero"/><path fill="#e9e9e9" d="M 179.164062 115.101562 L 135.117188 115.101562 L 135.117188 113.746094 L 179.164062 113.746094 L 179.164062 115.101562 " fill-opacity="1" fill-rule="nonzero"/><path fill="#e9e9e9" d="M 179.164062 118.40625 L 135.117188 118.40625 L 135.117188 117.046875 L 179.164062 117.046875 L 179.164062 118.40625 " fill-opacity="1" fill-rule="nonzero"/><path fill="#e9e9e9" d="M 179.164062 121.710938 L 135.117188 121.710938 L 135.117188 120.351562 L 179.164062 120.351562 L 179.164062 121.710938 " fill-opacity="1" fill-rule="nonzero"/><path fill="#e9e9e9" d="M 179.164062 125.011719 L 135.117188 125.011719 L 135.117188 123.652344 L 179.164062 123.652344 L 179.164062 125.011719 " fill-opacity="1" fill-rule="nonzero"/><path fill="#e9e9e9" d="M 179.164062 128.316406 L 135.117188 128.316406 L 135.117188 126.957031 L 179.164062 126.957031 L 179.164062 128.316406 " fill-opacity="1" fill-rule="nonzero"/><path fill="#e9e9e9" d="M 179.164062 131.617188 L 135.117188 131.617188 L 135.117188 130.257812 L 179.164062 130.257812 L 179.164062 131.617188 " fill-opacity="1" fill-rule="nonzero"/><path fill="#e9e9e9" d="M 179.164062 134.917969 L 135.117188 134.917969 L 135.117188 133.558594 L 179.164062 133.558594 L 179.164062 134.917969 " fill-opacity="1" fill-rule="nonzero"/><path fill="#e9e9e9" d="M 179.164062 138.222656 L 135.117188 138.222656 L 135.117188 136.867188 L 179.164062 136.867188 L 179.164062 138.222656 " fill-opacity="1" fill-rule="nonzero"/><path fill="#e9e9e9" d="M 179.164062 141.527344 L 135.117188 141.527344 L 135.117188 140.164062 L 179.164062 140.164062 L 179.164062 141.527344 " fill-opacity="1" fill-rule="nonzero"/><path fill="#e9e9e9" d="M 179.164062 144.828125 L 135.117188 144.828125 L 135.117188 143.46875 L 179.164062 143.46875 L 179.164062 144.828125 " fill-opacity="1" fill-rule="nonzero"/><path fill="#e9e9e9" d="M 179.164062 148.128906 L 135.117188 148.128906 L 135.117188 146.773438 L 179.164062 146.773438 L 179.164062 148.128906 " fill-opacity="1" fill-rule="nonzero"/><path fill="#e9e9e9" d="M 179.164062 151.4375 L 135.117188 151.4375 L 135.117188 150.074219 L 179.164062 150.074219 L 179.164062 151.4375 " fill-opacity="1" fill-rule="nonzero"/><path fill="#e9e9e9" d="M 179.164062 154.738281 L 135.117188 154.738281 L 135.117188 153.375 L 179.164062 153.375 L 179.164062 154.738281 " fill-opacity="1" fill-rule="nonzero"/><path fill="#e9e9e9" d="M 179.164062 158.039062 L 135.117188 158.039062 L 135.117188 156.679688 L 179.164062 156.679688 L 179.164062 158.039062 " fill-opacity="1" fill-rule="nonzero"/><path fill="#e9e9e9" d="M 179.164062 161.339844 L 135.117188 161.339844 L 135.117188 159.984375 L 179.164062 159.984375 L 179.164062 161.339844 " fill-opacity="1" fill-rule="nonzero"/><path fill="#e9e9e9" d="M 179.164062 164.648438 L 135.117188 164.648438 L 135.117188 163.285156 L 179.164062 163.285156 L 179.164062 164.648438 " fill-opacity="1" fill-rule="nonzero"/><path fill="#e9e9e9" d="M 179.164062 167.949219 L 135.117188 167.949219 L 135.117188 166.589844 L 179.164062 166.589844 L 179.164062 167.949219 " fill-opacity="1" fill-rule="nonzero"/><path fill="#e9e9e9" d="M 179.164062 171.25 L 135.117188 171.25 L 135.117188 169.894531 L 179.164062 169.894531 L 179.164062 171.25 " fill-opacity="1" fill-rule="nonzero"/><path fill="#e9e9e9" d="M 179.164062 174.554688 L 135.117188 174.554688 L 135.117188 173.195312 L 179.164062 173.195312 L 179.164062 174.554688 " fill-opacity="1" fill-rule="nonzero"/><path fill="#e9e9e9" d="M 179.164062 177.859375 L 135.117188 177.859375 L 135.117188 176.496094 L 179.164062 176.496094 L 179.164062 177.859375 " fill-opacity="1" fill-rule="nonzero"/><path fill="#e9e9e9" d="M 179.164062 181.160156 L 135.117188 181.160156 L 135.117188 179.800781 L 179.164062 179.800781 L 179.164062 181.160156 " fill-opacity="1" fill-rule="nonzero"/><path fill="#e9e9e9" d="M 179.164062 184.460938 L 135.117188 184.460938 L 135.117188 183.101562 L 179.164062 183.101562 L 179.164062 184.460938 " fill-opacity="1" fill-rule="nonzero"/><path fill="#e9e9e9" d="M 179.164062 187.769531 L 135.117188 187.769531 L 135.117188 186.40625 L 179.164062 186.40625 L 179.164062 187.769531 " fill-opacity="1" fill-rule="nonzero"/><path fill="#e9e9e9" d="M 179.164062 191.066406 L 135.117188 191.066406 L 135.117188 189.710938 L 179.164062 189.710938 L 179.164062 191.066406 " fill-opacity="1" fill-rule="nonzero"/><path fill="#e9e9e9" d="M 179.164062 194.371094 L 135.117188 194.371094 L 135.117188 193.015625 L 179.164062 193.015625 L 179.164062 194.371094 " fill-opacity="1" fill-rule="nonzero"/><path fill="#e9e9e9" d="M 179.164062 197.671875 L 135.117188 197.671875 L 135.117188 196.3125 L 179.164062 196.3125 L 179.164062 197.671875 " fill-opacity="1" fill-rule="nonzero"/><path fill="#e9e9e9" d="M 179.164062 200.976562 L 135.117188 200.976562 L 135.117188 199.617188 L 179.164062 199.617188 L 179.164062 200.976562 " fill-opacity="1" fill-rule="nonzero"/><path fill="#e9e9e9" d="M 179.164062 204.277344 L 135.117188 204.277344 L 135.117188 202.921875 L 179.164062 202.921875 L 179.164062 204.277344 " fill-opacity="1" fill-rule="nonzero"/><path fill="#e9e9e9" d="M 179.164062 207.582031 L 135.117188 207.582031 L 135.117188 206.222656 L 179.164062 206.222656 L 179.164062 207.582031 " fill-opacity="1" fill-rule="nonzero"/><path fill="#e9e9e9" d="M 179.164062 210.886719 L 135.117188 210.886719 L 135.117188 209.527344 L 179.164062 209.527344 L 179.164062 210.886719 " fill-opacity="1" fill-rule="nonzero"/><path fill="#e9e9e9" d="M 179.164062 214.1875 L 135.117188 214.1875 L 135.117188 212.828125 L 179.164062 212.828125 L 179.164062 214.1875 " fill-opacity="1" fill-rule="nonzero"/><path fill="#e9e9e9" d="M 179.164062 217.492188 L 135.117188 217.492188 L 135.117188 216.128906 L 179.164062 216.128906 L 179.164062 217.492188 " fill-opacity="1" fill-rule="nonzero"/><path fill="#e9e9e9" d="M 179.164062 220.792969 L 135.117188 220.792969 L 135.117188 219.433594 L 179.164062 219.433594 L 179.164062 220.792969 " fill-opacity="1" fill-rule="nonzero"/><path fill="#e9e9e9" d="M 179.164062 224.097656 L 135.117188 224.097656 L 135.117188 222.738281 L 179.164062 222.738281 L 179.164062 224.097656 " fill-opacity="1" fill-rule="nonzero"/><g clip-path="url(#c1aa40d011)"><path fill="#f14946" d="M 247.714844 88.355469 C 247.714844 87.023438 246.636719 85.949219 245.308594 85.949219 L 190.738281 85.949219 C 189.410156 85.949219 188.339844 87.023438 188.339844 88.355469 L 188.339844 291.78125 C 188.339844 293.109375 189.410156 294.1875 190.738281 294.1875 L 245.308594 294.1875 C 246.636719 294.1875 247.714844 293.109375 247.714844 291.78125 L 247.714844 88.355469 " fill-opacity="1" fill-rule="nonzero"/></g><path fill="#ffffff" d="M 218.023438 275.28125 C 207.953125 275.28125 199.785156 267.105469 199.785156 257.019531 C 199.785156 246.933594 207.953125 238.761719 218.023438 238.761719 C 228.101562 238.761719 236.265625 246.933594 236.265625 257.019531 C 236.265625 267.105469 228.101562 275.28125 218.023438 275.28125 Z M 218.023438 236.425781 C 206.664062 236.425781 197.457031 245.648438 197.457031 257.019531 C 197.457031 268.394531 206.664062 277.613281 218.023438 277.613281 C 229.382812 277.613281 238.59375 268.394531 238.59375 257.019531 C 238.59375 245.648438 229.382812 236.425781 218.023438 236.425781 " fill-opacity="1" fill-rule="nonzero"/><path fill="#ffffff" d="M 242.472656 102.671875 L 193.578125 102.671875 L 193.578125 228.558594 L 242.472656 228.558594 L 242.472656 102.671875 " fill-opacity="1" fill-rule="nonzero"/><path fill="#e9e9e9" d="M 240.050781 108.5 L 196 108.5 L 196 107.140625 L 240.050781 107.140625 L 240.050781 108.5 " fill-opacity="1" fill-rule="nonzero"/><path fill="#e9e9e9" d="M 240.050781 111.800781 L 196 111.800781 L 196 110.441406 L 240.050781 110.441406 L 240.050781 111.800781 " fill-opacity="1" fill-rule="nonzero"/><path fill="#e9e9e9" d="M 240.050781 115.101562 L 196 115.101562 L 196 113.746094 L 240.050781 113.746094 L 240.050781 115.101562 " fill-opacity="1" fill-rule="nonzero"/><path fill="#e9e9e9" d="M 240.050781 118.40625 L 196 118.40625 L 196 117.046875 L 240.050781 117.046875 L 240.050781 118.40625 " fill-opacity="1" fill-rule="nonzero"/><path fill="#e9e9e9" d="M 240.050781 121.710938 L 196 121.710938 L 196 120.351562 L 240.050781 120.351562 L 240.050781 121.710938 " fill-opacity="1" fill-rule="nonzero"/><path fill="#e9e9e9" d="M 240.050781 125.011719 L 196 125.011719 L 196 123.652344 L 240.050781 123.652344 L 240.050781 125.011719 " fill-opacity="1" fill-rule="nonzero"/><path fill="#e9e9e9" d="M 240.050781 128.316406 L 196 128.316406 L 196 126.957031 L 240.050781 126.957031 L 240.050781 128.316406 " fill-opacity="1" fill-rule="nonzero"/><path fill="#e9e9e9" d="M 240.050781 131.617188 L 196 131.617188 L 196 130.257812 L 240.050781 130.257812 L 240.050781 131.617188 " fill-opacity="1" fill-rule="nonzero"/><path fill="#e9e9e9" d="M 240.050781 134.917969 L 196 134.917969 L 196 133.558594 L 240.050781 133.558594 L 240.050781 134.917969 " fill-opacity="1" fill-rule="nonzero"/><path fill="#e9e9e9" d="M 240.050781 138.222656 L 196 138.222656 L 196 136.867188 L 240.050781 136.867188 L 240.050781 138.222656 " fill-opacity="1" fill-rule="nonzero"/><path fill="#e9e9e9" d="M 240.050781 141.527344 L 196 141.527344 L 196 140.164062 L 240.050781 140.164062 L 240.050781 141.527344 " fill-opacity="1" fill-rule="nonzero"/><path fill="#e9e9e9" d="M 240.050781 144.828125 L 196 144.828125 L 196 143.46875 L 240.050781 143.46875 L 240.050781 144.828125 " fill-opacity="1" fill-rule="nonzero"/><path fill="#e9e9e9" d="M 240.050781 148.128906 L 196 148.128906 L 196 146.773438 L 240.050781 146.773438 L 240.050781 148.128906 " fill-opacity="1" fill-rule="nonzero"/><path fill="#e9e9e9" d="M 240.050781 151.4375 L 196 151.4375 L 196 150.074219 L 240.050781 150.074219 L 240.050781 151.4375 " fill-opacity="1" fill-rule="nonzero"/><path fill="#e9e9e9" d="M 240.050781 154.738281 L 196 154.738281 L 196 153.375 L 240.050781 153.375 L 240.050781 154.738281 " fill-opacity="1" fill-rule="nonzero"/><path fill="#e9e9e9" d="M 240.050781 158.039062 L 196 158.039062 L 196 156.679688 L 240.050781 156.679688 L 240.050781 158.039062 " fill-opacity="1" fill-rule="nonzero"/><path fill="#e9e9e9" d="M 240.050781 161.339844 L 196 161.339844 L 196 159.984375 L 240.050781 159.984375 L 240.050781 161.339844 " fill-opacity="1" fill-rule="nonzero"/><path fill="#e9e9e9" d="M 240.050781 164.648438 L 196 164.648438 L 196 163.285156 L 240.050781 163.285156 L 240.050781 164.648438 " fill-opacity="1" fill-rule="nonzero"/><path fill="#e9e9e9" d="M 240.050781 167.949219 L 196 167.949219 L 196 166.589844 L 240.050781 166.589844 L 240.050781 167.949219 " fill-opacity="1" fill-rule="nonzero"/><path fill="#e9e9e9" d="M 240.050781 171.25 L 196 171.25 L 196 169.894531 L 240.050781 169.894531 L 240.050781 171.25 " fill-opacity="1" fill-rule="nonzero"/><path fill="#e9e9e9" d="M 240.050781 174.554688 L 196 174.554688 L 196 173.195312 L 240.050781 173.195312 L 240.050781 174.554688 " fill-opacity="1" fill-rule="nonzero"/><path fill="#e9e9e9" d="M 240.050781 177.859375 L 196 177.859375 L 196 176.496094 L 240.050781 176.496094 L 240.050781 177.859375 " fill-opacity="1" fill-rule="nonzero"/><path fill="#e9e9e9" d="M 240.050781 181.160156 L 196 181.160156 L 196 179.800781 L 240.050781 179.800781 L 240.050781 181.160156 " fill-opacity="1" fill-rule="nonzero"/><path fill="#e9e9e9" d="M 240.050781 184.460938 L 196 184.460938 L 196 183.101562 L 240.050781 183.101562 L 240.050781 184.460938 " fill-opacity="1" fill-rule="nonzero"/><path fill="#e9e9e9" d="M 240.050781 187.769531 L 196 187.769531 L 196 186.40625 L 240.050781 186.40625 L 240.050781 187.769531 " fill-opacity="1" fill-rule="nonzero"/><path fill="#e9e9e9" d="M 240.050781 191.066406 L 196 191.066406 L 196 189.710938 L 240.050781 189.710938 L 240.050781 191.066406 " fill-opacity="1" fill-rule="nonzero"/><path fill="#e9e9e9" d="M 240.050781 194.371094 L 196 194.371094 L 196 193.015625 L 240.050781 193.015625 L 240.050781 194.371094 " fill-opacity="1" fill-rule="nonzero"/><path fill="#e9e9e9" d="M 240.050781 197.671875 L 196 197.671875 L 196 196.3125 L 240.050781 196.3125 L 240.050781 197.671875 " fill-opacity="1" fill-rule="nonzero"/><path fill="#e9e9e9" d="M 240.050781 200.976562 L 196 200.976562 L 196 199.617188 L 240.050781 199.617188 L 240.050781 200.976562 " fill-opacity="1" fill-rule="nonzero"/><path fill="#e9e9e9" d="M 240.050781 204.277344 L 196 204.277344 L 196 202.921875 L 240.050781 202.921875 L 240.050781 204.277344 " fill-opacity="1" fill-rule="nonzero"/><path fill="#e9e9e9" d="M 240.050781 207.582031 L 196 207.582031 L 196 206.222656 L 240.050781 206.222656 L 240.050781 207.582031 " fill-opacity="1" fill-rule="nonzero"/><path fill="#e9e9e9" d="M 240.050781 210.886719 L 196 210.886719 L 196 209.527344 L 240.050781 209.527344 L 240.050781 210.886719 " fill-opacity="1" fill-rule="nonzero"/><path fill="#e9e9e9" d="M 240.050781 214.1875 L 196 214.1875 L 196 212.828125 L 240.050781 212.828125 L 240.050781 214.1875 " fill-opacity="1" fill-rule="nonzero"/><path fill="#e9e9e9" d="M 240.050781 217.492188 L 196 217.492188 L 196 216.128906 L 240.050781 216.128906 L 240.050781 217.492188 " fill-opacity="1" fill-rule="nonzero"/><path fill="#e9e9e9" d="M 240.050781 220.792969 L 196 220.792969 L 196 219.433594 L 240.050781 219.433594 L 240.050781 220.792969 " fill-opacity="1" fill-rule="nonzero"/><path fill="#e9e9e9" d="M 240.050781 224.097656 L 196 224.097656 L 196 222.738281 L 240.050781 222.738281 L 240.050781 224.097656 " fill-opacity="1" fill-rule="nonzero"/><g clip-path="url(#e0c8bc1800)"><path fill="#ff914d" d="M 308.5625 88.359375 C 308.5625 87.027344 307.480469 85.953125 306.152344 85.953125 L 251.492188 85.953125 C 250.160156 85.953125 249.089844 87.027344 249.089844 88.359375 L 249.089844 291.886719 C 249.089844 293.214844 250.160156 294.292969 251.492188 294.292969 L 306.152344 294.292969 C 307.480469 294.292969 308.5625 293.214844 308.5625 291.886719 L 308.5625 88.359375 " fill-opacity="1" fill-rule="nonzero"/></g><path fill="#ffffff" d="M 278.824219 275.378906 C 268.734375 275.378906 260.554688 267.195312 260.554688 257.109375 C 260.554688 247.015625 268.734375 238.835938 278.824219 238.835938 C 288.914062 238.835938 297.09375 247.015625 297.09375 257.109375 C 297.09375 267.195312 288.914062 275.378906 278.824219 275.378906 Z M 278.824219 236.503906 C 267.445312 236.503906 258.222656 245.730469 258.222656 257.109375 C 258.222656 268.488281 267.445312 277.710938 278.824219 277.710938 C 290.199219 277.710938 299.425781 268.488281 299.425781 257.109375 C 299.425781 245.730469 290.199219 236.503906 278.824219 236.503906 " fill-opacity="1" fill-rule="nonzero"/><path fill="#ffffff" d="M 303.3125 102.683594 L 254.335938 102.683594 L 254.335938 228.632812 L 303.3125 228.632812 L 303.3125 102.683594 " fill-opacity="1" fill-rule="nonzero"/><path fill="#e9e9e9" d="M 300.886719 108.515625 L 256.765625 108.515625 L 256.765625 107.152344 L 300.886719 107.152344 L 300.886719 108.515625 " fill-opacity="1" fill-rule="nonzero"/><path fill="#e9e9e9" d="M 300.886719 111.816406 L 256.765625 111.816406 L 256.765625 110.457031 L 300.886719 110.457031 L 300.886719 111.816406 " fill-opacity="1" fill-rule="nonzero"/><path fill="#e9e9e9" d="M 300.886719 115.121094 L 256.765625 115.121094 L 256.765625 113.761719 L 300.886719 113.761719 L 300.886719 115.121094 " fill-opacity="1" fill-rule="nonzero"/><path fill="#e9e9e9" d="M 300.886719 118.425781 L 256.765625 118.425781 L 256.765625 117.066406 L 300.886719 117.066406 L 300.886719 118.425781 " fill-opacity="1" fill-rule="nonzero"/><path fill="#e9e9e9" d="M 300.886719 121.730469 L 256.765625 121.730469 L 256.765625 120.371094 L 300.886719 120.371094 L 300.886719 121.730469 " fill-opacity="1" fill-rule="nonzero"/><path fill="#e9e9e9" d="M 300.886719 125.035156 L 256.765625 125.035156 L 256.765625 123.675781 L 300.886719 123.675781 L 300.886719 125.035156 " fill-opacity="1" fill-rule="nonzero"/><path fill="#e9e9e9" d="M 300.886719 128.339844 L 256.765625 128.339844 L 256.765625 126.980469 L 300.886719 126.980469 L 300.886719 128.339844 " fill-opacity="1" fill-rule="nonzero"/><path fill="#e9e9e9" d="M 300.886719 131.644531 L 256.765625 131.644531 L 256.765625 130.28125 L 300.886719 130.28125 L 300.886719 131.644531 " fill-opacity="1" fill-rule="nonzero"/><path fill="#e9e9e9" d="M 300.886719 134.945312 L 256.765625 134.945312 L 256.765625 133.585938 L 300.886719 133.585938 L 300.886719 134.945312 " fill-opacity="1" fill-rule="nonzero"/><path fill="#e9e9e9" d="M 300.886719 138.253906 L 256.765625 138.253906 L 256.765625 136.894531 L 300.886719 136.894531 L 300.886719 138.253906 " fill-opacity="1" fill-rule="nonzero"/><path fill="#e9e9e9" d="M 300.886719 141.558594 L 256.765625 141.558594 L 256.765625 140.195312 L 300.886719 140.195312 L 300.886719 141.558594 " fill-opacity="1" fill-rule="nonzero"/><path fill="#e9e9e9" d="M 300.886719 144.863281 L 256.765625 144.863281 L 256.765625 143.5 L 300.886719 143.5 L 300.886719 144.863281 " fill-opacity="1" fill-rule="nonzero"/><path fill="#e9e9e9" d="M 300.886719 148.164062 L 256.765625 148.164062 L 256.765625 146.808594 L 300.886719 146.808594 L 300.886719 148.164062 " fill-opacity="1" fill-rule="nonzero"/><path fill="#e9e9e9" d="M 300.886719 151.46875 L 256.765625 151.46875 L 256.765625 150.109375 L 300.886719 150.109375 L 300.886719 151.46875 " fill-opacity="1" fill-rule="nonzero"/><path fill="#e9e9e9" d="M 300.886719 154.773438 L 256.765625 154.773438 L 256.765625 153.414062 L 300.886719 153.414062 L 300.886719 154.773438 " fill-opacity="1" fill-rule="nonzero"/><path fill="#e9e9e9" d="M 300.886719 158.078125 L 256.765625 158.078125 L 256.765625 156.71875 L 300.886719 156.71875 L 300.886719 158.078125 " fill-opacity="1" fill-rule="nonzero"/><path fill="#e9e9e9" d="M 300.886719 161.382812 L 256.765625 161.382812 L 256.765625 160.023438 L 300.886719 160.023438 L 300.886719 161.382812 " fill-opacity="1" fill-rule="nonzero"/><path fill="#e9e9e9" d="M 300.886719 164.6875 L 256.765625 164.6875 L 256.765625 163.328125 L 300.886719 163.328125 L 300.886719 164.6875 " fill-opacity="1" fill-rule="nonzero"/><path fill="#e9e9e9" d="M 300.886719 167.992188 L 256.765625 167.992188 L 256.765625 166.632812 L 300.886719 166.632812 L 300.886719 167.992188 " fill-opacity="1" fill-rule="nonzero"/><path fill="#e9e9e9" d="M 300.886719 171.292969 L 256.765625 171.292969 L 256.765625 169.9375 L 300.886719 169.9375 L 300.886719 171.292969 " fill-opacity="1" fill-rule="nonzero"/><path fill="#e9e9e9" d="M 300.886719 174.597656 L 256.765625 174.597656 L 256.765625 173.238281 L 300.886719 173.238281 L 300.886719 174.597656 " fill-opacity="1" fill-rule="nonzero"/><path fill="#e9e9e9" d="M 300.886719 177.90625 L 256.765625 177.90625 L 256.765625 176.542969 L 300.886719 176.542969 L 300.886719 177.90625 " fill-opacity="1" fill-rule="nonzero"/><path fill="#e9e9e9" d="M 300.886719 181.207031 L 256.765625 181.207031 L 256.765625 179.847656 L 300.886719 179.847656 L 300.886719 181.207031 " fill-opacity="1" fill-rule="nonzero"/><path fill="#e9e9e9" d="M 300.886719 184.511719 L 256.765625 184.511719 L 256.765625 183.152344 L 300.886719 183.152344 L 300.886719 184.511719 " fill-opacity="1" fill-rule="nonzero"/><path fill="#e9e9e9" d="M 300.886719 187.820312 L 256.765625 187.820312 L 256.765625 186.457031 L 300.886719 186.457031 L 300.886719 187.820312 " fill-opacity="1" fill-rule="nonzero"/><path fill="#e9e9e9" d="M 300.886719 191.121094 L 256.765625 191.121094 L 256.765625 189.761719 L 300.886719 189.761719 L 300.886719 191.121094 " fill-opacity="1" fill-rule="nonzero"/><path fill="#e9e9e9" d="M 300.886719 194.425781 L 256.765625 194.425781 L 256.765625 193.070312 L 300.886719 193.070312 L 300.886719 194.425781 " fill-opacity="1" fill-rule="nonzero"/><path fill="#e9e9e9" d="M 300.886719 197.730469 L 256.765625 197.730469 L 256.765625 196.367188 L 300.886719 196.367188 L 300.886719 197.730469 " fill-opacity="1" fill-rule="nonzero"/><path fill="#e9e9e9" d="M 300.886719 201.035156 L 256.765625 201.035156 L 256.765625 199.675781 L 300.886719 199.675781 L 300.886719 201.035156 " fill-opacity="1" fill-rule="nonzero"/><path fill="#e9e9e9" d="M 300.886719 204.335938 L 256.765625 204.335938 L 256.765625 202.980469 L 300.886719 202.980469 L 300.886719 204.335938 " fill-opacity="1" fill-rule="nonzero"/><path fill="#e9e9e9" d="M 300.886719 207.644531 L 256.765625 207.644531 L 256.765625 206.285156 L 300.886719 206.285156 L 300.886719 207.644531 " fill-opacity="1" fill-rule="nonzero"/><path fill="#e9e9e9" d="M 300.886719 210.949219 L 256.765625 210.949219 L 256.765625 209.589844 L 300.886719 209.589844 L 300.886719 210.949219 " fill-opacity="1" fill-rule="nonzero"/><path fill="#e9e9e9" d="M 300.886719 214.253906 L 256.765625 214.253906 L 256.765625 212.894531 L 300.886719 212.894531 L 300.886719 214.253906 " fill-opacity="1" fill-rule="nonzero"/><path fill="#e9e9e9" d="M 300.886719 217.558594 L 256.765625 217.558594 L 256.765625 216.195312 L 300.886719 216.195312 L 300.886719 217.558594 " fill-opacity="1" fill-rule="nonzero"/><path fill="#e9e9e9" d="M 300.886719 220.863281 L 256.765625 220.863281 L 256.765625 219.5 L 300.886719 219.5 L 300.886719 220.863281 " fill-opacity="1" fill-rule="nonzero"/><path fill="#e9e9e9" d="M 300.886719 224.167969 L 256.765625 224.167969 L 256.765625 222.808594 L 300.886719 222.808594 L 300.886719 224.167969 " fill-opacity="1" fill-rule="nonzero"/><g fill="#000000" fill-opacity="1"><g transform="translate(147.311685, 174.646673)"><g><path d="M 11.046875 -21.296875 L 18.328125 -2.515625 C 18.609375 -1.796875 18.921875 -1.300781 19.265625 -1.03125 C 19.617188 -0.757812 19.9375 -0.613281 20.21875 -0.59375 L 20.21875 0 C 19.613281 -0.0390625 18.90625 -0.0664062 18.09375 -0.078125 C 17.289062 -0.0859375 16.476562 -0.09375 15.65625 -0.09375 C 14.738281 -0.09375 13.867188 -0.0859375 13.046875 -0.078125 C 12.222656 -0.0664062 11.570312 -0.0390625 11.09375 0 L 11.09375 -0.59375 C 12.113281 -0.632812 12.757812 -0.8125 13.03125 -1.125 C 13.300781 -1.4375 13.238281 -2.101562 12.84375 -3.125 L 7.734375 -17.0625 L 8.28125 -17.84375 L 3.71875 -5.96875 C 3.28125 -4.863281 3.015625 -3.960938 2.921875 -3.265625 C 2.835938 -2.566406 2.890625 -2.023438 3.078125 -1.640625 C 3.265625 -1.265625 3.570312 -1 4 -0.84375 C 4.4375 -0.695312 4.953125 -0.613281 5.546875 -0.59375 L 5.546875 0 C 4.890625 -0.0390625 4.257812 -0.0664062 3.65625 -0.078125 C 3.0625 -0.0859375 2.453125 -0.09375 1.828125 -0.09375 C 1.390625 -0.09375 0.972656 -0.0859375 0.578125 -0.078125 C 0.191406 -0.0664062 -0.148438 -0.0390625 -0.453125 0 L -0.453125 -0.59375 C -0.0234375 -0.675781 0.40625 -0.945312 0.84375 -1.40625 C 1.28125 -1.863281 1.707031 -2.644531 2.125 -3.75 L 8.96875 -21.296875 C 9.289062 -21.273438 9.632812 -21.265625 10 -21.265625 C 10.375 -21.265625 10.722656 -21.273438 11.046875 -21.296875 Z M 13.140625 -8.640625 L 13.140625 -8.046875 L 4.203125 -8.046875 L 4.5 -8.640625 Z M 13.140625 -8.640625 "/></g></g></g><g fill="#000000" fill-opacity="1"><g transform="translate(215.752872, 174.646673)"><g><path d="M 10.296875 -21.234375 L 10.296875 -20.640625 C 9.648438 -20.617188 9.160156 -20.539062 8.828125 -20.40625 C 8.503906 -20.28125 8.289062 -20.039062 8.1875 -19.6875 C 8.09375 -19.34375 8.046875 -18.800781 8.046875 -18.0625 L 8.046875 -3.1875 C 8.046875 -2.457031 8.097656 -1.910156 8.203125 -1.546875 C 8.316406 -1.191406 8.53125 -0.953125 8.84375 -0.828125 C 9.164062 -0.710938 9.648438 -0.632812 10.296875 -0.59375 L 10.296875 0 C 9.753906 -0.0390625 9.070312 -0.0664062 8.25 -0.078125 C 7.425781 -0.0859375 6.597656 -0.09375 5.765625 -0.09375 C 4.785156 -0.09375 3.878906 -0.0859375 3.046875 -0.078125 C 2.210938 -0.0664062 1.535156 -0.0390625 1.015625 0 L 1.015625 -0.59375 C 1.660156 -0.632812 2.140625 -0.710938 2.453125 -0.828125 C 2.773438 -0.953125 2.988281 -1.191406 3.09375 -1.546875 C 3.207031 -1.910156 3.265625 -2.457031 3.265625 -3.1875 L 3.265625 -18.0625 C 3.265625 -18.800781 3.207031 -19.34375 3.09375 -19.6875 C 2.988281 -20.039062 2.769531 -20.28125 2.4375 -20.40625 C 2.113281 -20.539062 1.640625 -20.617188 1.015625 -20.640625 L 1.015625 -21.234375 C 1.535156 -21.210938 2.210938 -21.191406 3.046875 -21.171875 C 3.878906 -21.160156 4.785156 -21.15625 5.765625 -21.15625 C 6.597656 -21.15625 7.425781 -21.160156 8.25 -21.171875 C 9.070312 -21.191406 9.753906 -21.210938 10.296875 -21.234375 Z M 10.296875 -21.234375 "/></g></g></g><g fill="#000000" fill-opacity="1"><g transform="translate(268.314244, 174.646673)"><g><path d="M 1.015625 -21.234375 C 1.515625 -21.210938 2.1875 -21.191406 3.03125 -21.171875 C 3.882812 -21.160156 4.734375 -21.15625 5.578125 -21.15625 C 6.535156 -21.15625 7.460938 -21.160156 8.359375 -21.171875 C 9.265625 -21.191406 9.910156 -21.203125 10.296875 -21.203125 C 12.148438 -21.203125 13.691406 -21 14.921875 -20.59375 C 16.148438 -20.1875 17.066406 -19.59375 17.671875 -18.8125 C 18.285156 -18.03125 18.59375 -17.085938 18.59375 -15.984375 C 18.59375 -15.304688 18.453125 -14.625 18.171875 -13.9375 C 17.898438 -13.25 17.425781 -12.609375 16.75 -12.015625 C 16.082031 -11.421875 15.164062 -10.945312 14 -10.59375 C 12.84375 -10.25 11.382812 -10.078125 9.625 -10.078125 L 6.75 -10.078125 L 6.75 -10.6875 L 9.328125 -10.6875 C 10.503906 -10.6875 11.398438 -10.910156 12.015625 -11.359375 C 12.628906 -11.804688 13.050781 -12.40625 13.28125 -13.15625 C 13.507812 -13.90625 13.625 -14.738281 13.625 -15.65625 C 13.625 -17.238281 13.34375 -18.460938 12.78125 -19.328125 C 12.21875 -20.203125 11.257812 -20.640625 9.90625 -20.640625 C 9.125 -20.640625 8.617188 -20.46875 8.390625 -20.125 C 8.160156 -19.789062 8.046875 -19.101562 8.046875 -18.0625 L 8.046875 -3.1875 C 8.046875 -2.457031 8.097656 -1.910156 8.203125 -1.546875 C 8.316406 -1.191406 8.53125 -0.953125 8.84375 -0.828125 C 9.164062 -0.710938 9.648438 -0.632812 10.296875 -0.59375 L 10.296875 0 C 9.753906 -0.0390625 9.070312 -0.0664062 8.25 -0.078125 C 7.425781 -0.0859375 6.597656 -0.09375 5.765625 -0.09375 C 4.796875 -0.09375 3.882812 -0.0859375 3.03125 -0.078125 C 2.1875 -0.0664062 1.515625 -0.0390625 1.015625 0 L 1.015625 -0.59375 C 1.660156 -0.632812 2.140625 -0.710938 2.453125 -0.828125 C 2.773438 -0.953125 2.988281 -1.191406 3.09375 -1.546875 C 3.207031 -1.910156 3.265625 -2.457031 3.265625 -3.1875 L 3.265625 -18.0625 C 3.265625 -18.800781 3.207031 -19.34375 3.09375 -19.6875 C 2.988281 -20.039062 2.769531 -20.28125 2.4375 -20.40625 C 2.113281 -20.539062 1.640625 -20.617188 1.015625 -20.640625 Z M 6.6875 -10.59375 C 7.550781 -10.570312 8.296875 -10.53125 8.921875 -10.46875 C 9.554688 -10.40625 10.113281 -10.347656 10.59375 -10.296875 C 11.070312 -10.253906 11.5 -10.222656 11.875 -10.203125 C 13.695312 -10.035156 15.039062 -9.640625 15.90625 -9.015625 C 16.78125 -8.398438 17.347656 -7.472656 17.609375 -6.234375 L 18.296875 -3.15625 C 18.472656 -2.351562 18.660156 -1.789062 18.859375 -1.46875 C 19.066406 -1.144531 19.359375 -0.984375 19.734375 -0.984375 C 19.992188 -1.003906 20.207031 -1.066406 20.375 -1.171875 C 20.550781 -1.285156 20.738281 -1.457031 20.9375 -1.6875 L 21.359375 -1.3125 C 20.816406 -0.695312 20.234375 -0.253906 19.609375 0.015625 C 18.992188 0.285156 18.25 0.421875 17.375 0.421875 C 16.289062 0.421875 15.398438 0.191406 14.703125 -0.265625 C 14.003906 -0.722656 13.539062 -1.570312 13.3125 -2.8125 L 12.78125 -5.8125 C 12.632812 -6.65625 12.460938 -7.390625 12.265625 -8.015625 C 12.066406 -8.648438 11.789062 -9.148438 11.4375 -9.515625 C 11.09375 -9.890625 10.609375 -10.078125 9.984375 -10.078125 L 6.75 -10.078125 Z M 6.6875 -10.59375 "/></g></g></g><g clip-path="url(#9a0bfe9e18)"><path fill="#0cc0df" d="M 126.179688 88.359375 C 126.179688 87.027344 125.097656 85.953125 123.769531 85.953125 L 69.109375 85.953125 C 67.777344 85.953125 66.707031 87.027344 66.707031 88.359375 L 66.707031 291.886719 C 66.707031 293.214844 67.777344 294.292969 69.109375 294.292969 L 123.769531 294.292969 C 125.097656 294.292969 126.179688 293.214844 126.179688 291.886719 L 126.179688 88.359375 " fill-opacity="1" fill-rule="nonzero"/></g><path fill="#ffffff" d="M 96.441406 275.378906 C 86.351562 275.378906 78.171875 267.195312 78.171875 257.109375 C 78.171875 247.015625 86.351562 238.835938 96.441406 238.835938 C 106.53125 238.835938 114.710938 247.015625 114.710938 257.109375 C 114.710938 267.195312 106.53125 275.378906 96.441406 275.378906 Z M 96.441406 236.503906 C 85.0625 236.503906 75.839844 245.730469 75.839844 257.109375 C 75.839844 268.488281 85.0625 277.710938 96.441406 277.710938 C 107.820312 277.710938 117.042969 268.488281 117.042969 257.109375 C 117.042969 245.730469 107.820312 236.503906 96.441406 236.503906 " fill-opacity="1" fill-rule="nonzero"/><path fill="#ffffff" d="M 120.929688 102.683594 L 71.953125 102.683594 L 71.953125 228.632812 L 120.929688 228.632812 L 120.929688 102.683594 " fill-opacity="1" fill-rule="nonzero"/><path fill="#e9e9e9" d="M 118.503906 108.515625 L 74.382812 108.515625 L 74.382812 107.152344 L 118.503906 107.152344 L 118.503906 108.515625 " fill-opacity="1" fill-rule="nonzero"/><path fill="#e9e9e9" d="M 118.503906 111.816406 L 74.382812 111.816406 L 74.382812 110.457031 L 118.503906 110.457031 L 118.503906 111.816406 " fill-opacity="1" fill-rule="nonzero"/><path fill="#e9e9e9" d="M 118.503906 115.121094 L 74.382812 115.121094 L 74.382812 113.761719 L 118.503906 113.761719 L 118.503906 115.121094 " fill-opacity="1" fill-rule="nonzero"/><path fill="#e9e9e9" d="M 118.503906 118.425781 L 74.382812 118.425781 L 74.382812 117.066406 L 118.503906 117.066406 L 118.503906 118.425781 " fill-opacity="1" fill-rule="nonzero"/><path fill="#e9e9e9" d="M 118.503906 121.730469 L 74.382812 121.730469 L 74.382812 120.371094 L 118.503906 120.371094 L 118.503906 121.730469 " fill-opacity="1" fill-rule="nonzero"/><path fill="#e9e9e9" d="M 118.503906 125.035156 L 74.382812 125.035156 L 74.382812 123.675781 L 118.503906 123.675781 L 118.503906 125.035156 " fill-opacity="1" fill-rule="nonzero"/><path fill="#e9e9e9" d="M 118.503906 128.339844 L 74.382812 128.339844 L 74.382812 126.980469 L 118.503906 126.980469 L 118.503906 128.339844 " fill-opacity="1" fill-rule="nonzero"/><path fill="#e9e9e9" d="M 118.503906 131.644531 L 74.382812 131.644531 L 74.382812 130.28125 L 118.503906 130.28125 L 118.503906 131.644531 " fill-opacity="1" fill-rule="nonzero"/><path fill="#e9e9e9" d="M 118.503906 134.945312 L 74.382812 134.945312 L 74.382812 133.585938 L 118.503906 133.585938 L 118.503906 134.945312 " fill-opacity="1" fill-rule="nonzero"/><path fill="#e9e9e9" d="M 118.503906 138.253906 L 74.382812 138.253906 L 74.382812 136.894531 L 118.503906 136.894531 L 118.503906 138.253906 " fill-opacity="1" fill-rule="nonzero"/><path fill="#e9e9e9" d="M 118.503906 141.558594 L 74.382812 141.558594 L 74.382812 140.195312 L 118.503906 140.195312 L 118.503906 141.558594 " fill-opacity="1" fill-rule="nonzero"/><path fill="#e9e9e9" d="M 118.503906 144.863281 L 74.382812 144.863281 L 74.382812 143.5 L 118.503906 143.5 L 118.503906 144.863281 " fill-opacity="1" fill-rule="nonzero"/><path fill="#e9e9e9" d="M 118.503906 148.164062 L 74.382812 148.164062 L 74.382812 146.808594 L 118.503906 146.808594 L 118.503906 148.164062 " fill-opacity="1" fill-rule="nonzero"/><path fill="#e9e9e9" d="M 118.503906 151.46875 L 74.382812 151.46875 L 74.382812 150.109375 L 118.503906 150.109375 L 118.503906 151.46875 " fill-opacity="1" fill-rule="nonzero"/><path fill="#e9e9e9" d="M 118.503906 154.773438 L 74.382812 154.773438 L 74.382812 153.414062 L 118.503906 153.414062 L 118.503906 154.773438 " fill-opacity="1" fill-rule="nonzero"/><path fill="#e9e9e9" d="M 118.503906 158.078125 L 74.382812 158.078125 L 74.382812 156.71875 L 118.503906 156.71875 L 118.503906 158.078125 " fill-opacity="1" fill-rule="nonzero"/><path fill="#e9e9e9" d="M 118.503906 161.382812 L 74.382812 161.382812 L 74.382812 160.023438 L 118.503906 160.023438 L 118.503906 161.382812 " fill-opacity="1" fill-rule="nonzero"/><path fill="#e9e9e9" d="M 118.503906 164.6875 L 74.382812 164.6875 L 74.382812 163.328125 L 118.503906 163.328125 L 118.503906 164.6875 " fill-opacity="1" fill-rule="nonzero"/><path fill="#e9e9e9" d="M 118.503906 167.992188 L 74.382812 167.992188 L 74.382812 166.632812 L 118.503906 166.632812 L 118.503906 167.992188 " fill-opacity="1" fill-rule="nonzero"/><path fill="#e9e9e9" d="M 118.503906 171.292969 L 74.382812 171.292969 L 74.382812 169.9375 L 118.503906 169.9375 L 118.503906 171.292969 " fill-opacity="1" fill-rule="nonzero"/><path fill="#e9e9e9" d="M 118.503906 174.597656 L 74.382812 174.597656 L 74.382812 173.238281 L 118.503906 173.238281 L 118.503906 174.597656 " fill-opacity="1" fill-rule="nonzero"/><path fill="#e9e9e9" d="M 118.503906 177.90625 L 74.382812 177.90625 L 74.382812 176.542969 L 118.503906 176.542969 L 118.503906 177.90625 " fill-opacity="1" fill-rule="nonzero"/><path fill="#e9e9e9" d="M 118.503906 181.207031 L 74.382812 181.207031 L 74.382812 179.847656 L 118.503906 179.847656 L 118.503906 181.207031 " fill-opacity="1" fill-rule="nonzero"/><path fill="#e9e9e9" d="M 118.503906 184.511719 L 74.382812 184.511719 L 74.382812 183.152344 L 118.503906 183.152344 L 118.503906 184.511719 " fill-opacity="1" fill-rule="nonzero"/><path fill="#e9e9e9" d="M 118.503906 187.820312 L 74.382812 187.820312 L 74.382812 186.457031 L 118.503906 186.457031 L 118.503906 187.820312 " fill-opacity="1" fill-rule="nonzero"/><path fill="#e9e9e9" d="M 118.503906 191.121094 L 74.382812 191.121094 L 74.382812 189.761719 L 118.503906 189.761719 L 118.503906 191.121094 " fill-opacity="1" fill-rule="nonzero"/><path fill="#e9e9e9" d="M 118.503906 194.425781 L 74.382812 194.425781 L 74.382812 193.070312 L 118.503906 193.070312 L 118.503906 194.425781 " fill-opacity="1" fill-rule="nonzero"/><path fill="#e9e9e9" d="M 118.503906 197.730469 L 74.382812 197.730469 L 74.382812 196.367188 L 118.503906 196.367188 L 118.503906 197.730469 " fill-opacity="1" fill-rule="nonzero"/><path fill="#e9e9e9" d="M 118.503906 201.035156 L 74.382812 201.035156 L 74.382812 199.675781 L 118.503906 199.675781 L 118.503906 201.035156 " fill-opacity="1" fill-rule="nonzero"/><path fill="#e9e9e9" d="M 118.503906 204.335938 L 74.382812 204.335938 L 74.382812 202.980469 L 118.503906 202.980469 L 118.503906 204.335938 " fill-opacity="1" fill-rule="nonzero"/><path fill="#e9e9e9" d="M 118.503906 207.644531 L 74.382812 207.644531 L 74.382812 206.285156 L 118.503906 206.285156 L 118.503906 207.644531 " fill-opacity="1" fill-rule="nonzero"/><path fill="#e9e9e9" d="M 118.503906 210.949219 L 74.382812 210.949219 L 74.382812 209.589844 L 118.503906 209.589844 L 118.503906 210.949219 " fill-opacity="1" fill-rule="nonzero"/><path fill="#e9e9e9" d="M 118.503906 214.253906 L 74.382812 214.253906 L 74.382812 212.894531 L 118.503906 212.894531 L 118.503906 214.253906 " fill-opacity="1" fill-rule="nonzero"/><path fill="#e9e9e9" d="M 118.503906 217.558594 L 74.382812 217.558594 L 74.382812 216.195312 L 118.503906 216.195312 L 118.503906 217.558594 " fill-opacity="1" fill-rule="nonzero"/><path fill="#e9e9e9" d="M 118.503906 220.863281 L 74.382812 220.863281 L 74.382812 219.5 L 118.503906 219.5 L 118.503906 220.863281 " fill-opacity="1" fill-rule="nonzero"/><path fill="#e9e9e9" d="M 118.503906 224.167969 L 74.382812 224.167969 L 74.382812 222.808594 L 118.503906 222.808594 L 118.503906 224.167969 " fill-opacity="1" fill-rule="nonzero"/><g fill="#000000" fill-opacity="1"><g transform="translate(86.990485, 174.646673)"><g><path d="M 17.0625 -21.234375 C 16.988281 -20.335938 16.9375 -19.46875 16.90625 -18.625 C 16.875 -17.789062 16.859375 -17.144531 16.859375 -16.6875 C 16.859375 -16.238281 16.867188 -15.8125 16.890625 -15.40625 C 16.910156 -15.007812 16.929688 -14.675781 16.953125 -14.40625 L 16.265625 -14.40625 C 16.003906 -15.957031 15.640625 -17.175781 15.171875 -18.0625 C 14.710938 -18.957031 14.148438 -19.59375 13.484375 -19.96875 C 12.816406 -20.351562 12.019531 -20.546875 11.09375 -20.546875 L 10.109375 -20.546875 C 9.523438 -20.546875 9.082031 -20.492188 8.78125 -20.390625 C 8.488281 -20.296875 8.289062 -20.097656 8.1875 -19.796875 C 8.09375 -19.492188 8.046875 -19.035156 8.046875 -18.421875 L 8.046875 -3.359375 C 8.046875 -2.578125 8.125 -1.992188 8.28125 -1.609375 C 8.4375 -1.234375 8.742188 -0.984375 9.203125 -0.859375 C 9.671875 -0.742188 10.351562 -0.675781 11.25 -0.65625 L 11.25 0 C 10.625 -0.0195312 9.820312 -0.0390625 8.84375 -0.0625 C 7.863281 -0.0820312 6.835938 -0.09375 5.765625 -0.09375 C 4.898438 -0.09375 4.054688 -0.0820312 3.234375 -0.0625 C 2.421875 -0.0390625 1.679688 -0.0195312 1.015625 0 L 1.015625 -0.59375 C 1.660156 -0.632812 2.140625 -0.710938 2.453125 -0.828125 C 2.773438 -0.953125 2.988281 -1.191406 3.09375 -1.546875 C 3.207031 -1.910156 3.265625 -2.457031 3.265625 -3.1875 L 3.265625 -18.0625 C 3.265625 -18.800781 3.207031 -19.34375 3.09375 -19.6875 C 2.988281 -20.039062 2.769531 -20.28125 2.4375 -20.40625 C 2.113281 -20.539062 1.640625 -20.617188 1.015625 -20.640625 L 1.015625 -21.234375 C 1.835938 -21.210938 2.707031 -21.195312 3.625 -21.1875 C 4.550781 -21.1875 5.460938 -21.179688 6.359375 -21.171875 C 7.253906 -21.160156 8.09375 -21.15625 8.875 -21.15625 C 9.65625 -21.15625 10.296875 -21.15625 10.796875 -21.15625 C 11.722656 -21.15625 12.769531 -21.160156 13.9375 -21.171875 C 15.101562 -21.179688 16.144531 -21.203125 17.0625 -21.234375 Z M 12.59375 -10.859375 C 12.59375 -10.859375 12.59375 -10.757812 12.59375 -10.5625 C 12.59375 -10.363281 12.59375 -10.265625 12.59375 -10.265625 L 7.140625 -10.265625 C 7.140625 -10.265625 7.140625 -10.363281 7.140625 -10.5625 C 7.140625 -10.757812 7.140625 -10.859375 7.140625 -10.859375 Z M 13.34375 -14.8125 C 13.269531 -13.675781 13.238281 -12.804688 13.25 -12.203125 C 13.257812 -11.609375 13.265625 -11.0625 13.265625 -10.5625 C 13.265625 -10.0625 13.269531 -9.507812 13.28125 -8.90625 C 13.300781 -8.3125 13.351562 -7.441406 13.4375 -6.296875 L 12.75 -6.296875 C 12.625 -6.992188 12.429688 -7.644531 12.171875 -8.25 C 11.921875 -8.851562 11.546875 -9.335938 11.046875 -9.703125 C 10.546875 -10.078125 9.894531 -10.265625 9.09375 -10.265625 L 9.09375 -10.859375 C 9.6875 -10.859375 10.1875 -10.984375 10.59375 -11.234375 C 11.007812 -11.484375 11.359375 -11.8125 11.640625 -12.21875 C 11.921875 -12.632812 12.140625 -13.070312 12.296875 -13.53125 C 12.460938 -13.988281 12.582031 -14.414062 12.65625 -14.8125 Z M 13.34375 -14.8125 "/></g></g></g></svg>